<svg xmlns="http://www.w3.org/2000/svg" width="168.037" height="80.674" viewBox="0 0 168.037 80.674"><g transform="translate(55 60)"><path d="M2.146,1.791A266.641,266.641,0,0,1,29.22,0,139.993,139.993,0,0,1,51.5,1.791c1.185,0,2.146,1.6,2.146,3.582V28.654c0,1.978-.961,3.582-2.146,3.582H2.146C.961,32.236,0,30.632,0,28.654V5.373C0,3.394.961,1.791,2.146,1.791Z" transform="translate(-0.889 20.427) rotate(180)" fill="#9ac6c3"/><rect width="22" height="32.236" rx="2" transform="translate(6.037 -11.867)" fill="#f1ba27"/><rect width="48" height="32.236" rx="2" transform="translate(36.506 -11.562)" fill="#dfc1b4"/><path d="M2.963,0H37.037C38.673,0,40,1.642,40,3.667V29.333C40,31.358,38.673,33,37.037,33H2.963C1.327,33,0,31.358,0,29.333V3.667C0,1.642,1.327,0,2.963,0Z" transform="translate(8.556 -60)" fill="#5f81a9"/><path d="M1.333,0H38.667C39.4,0,40,1.642,40,3.667V29.333C40,31.358,39.4,33,38.667,33H1.333C.6,33,0,31.358,0,29.333V3.667C0,1.642.6,0,1.333,0Z" transform="translate(-55 -60)" fill="#f1ba27"/><path d="M2.963,0H37.037C38.673,0,40,1.642,40,3.667V29.333C40,31.358,38.673,33,37.037,33H2.963C1.327,33,0,31.358,0,29.333V3.667C0,1.642,1.327,0,2.963,0Z" transform="translate(70.506 -60)" fill="#ec8e28"/><rect width="22" height="32.236" rx="2" transform="translate(91.037 -11.867)" fill="#f1ba27"/></g></svg>